<?xml version="1.0"?><svg width="240" height="153.33333333333331" xmlns="http://www.w3.org/2000/svg" xmlns:xlink="http://www.w3.org/1999/xlink">
 <defs>
  <linearGradient id="linearGradient830">
   <stop stop-color="#000" offset="0" id="stop831"/>
   <stop stop-color="#fff" offset="1" id="stop832"/>
  </linearGradient>
  <radialGradient xlink:href="#linearGradient830" id="radialGradient833"/>
  <linearGradient y2="0.5" y1="0.5" xlink:href="#linearGradient830" x2="1" x1="0" id="linearGradient834"/>
 </defs>
 <g>
  <title>Layer 1</title>
  <g transform="matrix(0.7592371239943019,0,0,1,-57.941631234431384,-327.433) " id="g846">
  <g id="g54106">
   <line transform="rotate(5.572197914123535 120.49999999999984,79.9166717529297) " id="svg_1" y2="104.416672" x2="122.75" y1="55.416672" x1="118.25" fill-opacity="0.75" stroke-linecap="round" stroke-linejoin="round" stroke-dasharray="null" stroke-width="2.5" stroke="#000000" fill="none"/>
  </g>
  <g transform="matrix(0.907005,0,0,0.919533,-219.1902,1.228984) " id="g1981">
   <path fill="#000000" stroke="#000000" id="path1204" d="m280.215393,138.821518c0.021912,8.470001 18.815918,7.393997 18.753418,-6.572998c0.02478,-13.607002 -17.95462,-89.745502 -18.155304,-104.306402c-0.211395,-11.556799 6.122284,-24.50953 11.548401,-24.368599c4.298584,0.141 8.337585,9.8729 8.315399,21.986399c0.326385,39.172802 -33.980804,36.640697 -33.980804,63.408802c0,17.301804 14.363403,21.871803 21.545105,21.871803c24.319794,-0.163002 20.239197,-29.379799 4.733307,-29.379799c-9.14032,-0.326607 -17.138123,12.078194 -5.059814,22.360794c-20.402496,-8.976799 -9.466705,-30.684998 6.692017,-30.848297c21.545074,0.163101 25.299194,39.6623 -6.365509,39.825302c-18.933594,0.163994 -26.931396,-16.484901 -26.768219,-29.542503c0,-25.135902 37.051025,-39.662502 36.561401,-60.881102c0,-13.384 -13.873779,-7.3449 -14.200195,14.200197c0.326508,13.384102 17.627808,84.058407 17.4646,94.994404c0,22.523987 -28.889984,15.179001 -28.889984,3.753998c0.163177,-16.321999 16.974884,-4.734009 11.751892,-4.244003c-4.080597,7.181992 -3.945709,7.742004 -3.945709,7.742004z"/>
   <path fill="#000000" stroke="#000000" id="path1205" d="m288.042908,131.72551c0,3.789001 -3.160095,6.865005 -7.053406,6.865005c-3.893311,0 -7.053497,-3.076004 -7.053497,-6.865005c0,-3.789986 3.160187,-6.86599 7.053497,-6.86599c3.893311,0 7.053406,3.076004 7.053406,6.86599z"/>
   <path fill="#000000" id="path1206" d="m295.704498,109.315521l2.3125,0l0,2.25l-2.3125,0l0,-2.25z"/>
   <path fill="#000000" id="path1207" d="m288.954498,74.003517l2.9375,0l0,7.3125l-2.9375,0l0,-7.3125z"/>
   <path fill="#000000" id="path1208" d="m283.746613,46.842716l1.392975,-0.240501l1.960327,12.937103l-1.393005,0.240498l-1.960297,-12.937099z"/>
  </g>
  <ellipse transform="rotate(-13.671307563781738 110.24999999999994,106.91667175292967) " ry="6.713197" rx="10.385966" id="svg_3" cy="106.916672" cx="110.25" stroke-linecap="round" stroke-linejoin="round" stroke-dasharray="null" stroke-width="2.5" stroke="#000000" fill="#000000"/>
 </g>
</svg>
